<?xml version="1.0" encoding="utf-8" standalone="no"?>
<!DOCTYPE svg PUBLIC "-//W3C//DTD SVG 1.1//EN"
  "http://www.w3.org/Graphics/SVG/1.1/DTD/svg11.dtd">
<!-- Created with matplotlib (http://matplotlib.org/) -->
<svg height="216pt" version="1.1" viewBox="0 0 648 216" width="648pt" xmlns="http://www.w3.org/2000/svg" xmlns:xlink="http://www.w3.org/1999/xlink">
 <defs>
  <style type="text/css">
*{stroke-linecap:butt;stroke-linejoin:round;stroke-miterlimit:100000;}
  </style>
 </defs>
 <g id="figure_1">
  <g id="patch_1">
   <path d="M 0 216 
L 648 216 
L 648 0 
L 0 0 
z
" style="fill:#ffffff;"/>
  </g>
  <g id="axes_1">
   <g id="patch_2">
    <path d="M 81 189 
L 309.272727 189 
L 309.272727 21.6 
L 81 21.6 
z
" style="fill:#ffffff;"/>
   </g>
   <g id="line2d_1">
    <path clip-path="url(#p7bc8c82bef)" d="M 81 -1365.428571 
M 149.24994 -1 
L 150.879406 6.441769 
L 155.538033 23.320154 
L 160.19666 36.517811 
L 164.855288 46.671922 
L 169.513915 54.340024 
L 174.172542 60.000003 
L 178.831169 64.050098 
L 183.489796 66.808902 
L 188.148423 68.515358 
L 192.80705 69.328763 
L 197.465677 69.328763 
L 202.124304 68.515358 
L 206.782931 66.808902 
L 211.441558 64.050098 
L 216.100186 60.000003 
L 220.758813 54.340024 
L 225.41744 46.671922 
L 230.076067 36.517811 
L 234.734694 23.320154 
L 239.393321 6.441769 
L 241.022787 -1 
" style="fill:none;stroke:#0000ff;stroke-linecap:square;"/>
   </g>
   <g id="line2d_2">
    <path clip-path="url(#p7bc8c82bef)" d="M 81 -887.142857 
M 126.525445 -1 
L 127.586271 6.491632 
L 132.244898 31.80838 
L 136.903525 50.657387 
L 141.562152 64.074076 
L 146.220779 73.01422 
L 150.879406 78.353948 
L 155.538033 80.889738 
L 160.19666 81.338421 
L 164.855288 80.337181 
L 169.513915 78.443552 
L 174.172542 76.135422 
L 178.831169 73.811031 
L 183.489796 71.78897 
L 188.148423 70.308183 
L 192.80705 69.527965 
L 197.465677 69.527965 
L 202.124304 70.308183 
L 206.782931 71.78897 
L 211.441558 73.811031 
L 216.100186 76.135422 
L 220.758813 78.443552 
L 225.41744 80.337181 
L 230.076067 81.338421 
L 234.734694 80.889738 
L 239.393321 78.353948 
L 244.051948 73.01422 
L 248.710575 64.074076 
L 253.369202 50.657387 
L 258.027829 31.80838 
L 262.686456 6.491632 
L 263.747283 -1 
" style="fill:none;stroke:#008000;stroke-linecap:square;"/>
   </g>
   <g id="line2d_3">
    <path clip-path="url(#p7bc8c82bef)" d="M 81 -648 
M 113.305082 -1 
L 113.61039 2.197656 
L 118.269017 40.380858 
L 122.927644 69.308975 
L 127.586271 90.256372 
L 132.244898 104.417769 
L 136.903525 112.908235 
L 141.562152 116.763193 
L 146.220779 116.938419 
L 150.879406 114.310038 
L 155.538033 109.67453 
L 160.19666 103.748727 
L 164.855288 97.16981 
L 169.513915 90.495316 
L 174.172542 84.203132 
L 178.831169 78.691498 
L 183.489796 74.279004 
L 188.148423 71.204595 
L 192.80705 69.627567 
L 197.465677 69.627567 
L 202.124304 71.204595 
L 206.782931 74.279004 
L 211.441558 78.691498 
L 216.100186 84.203132 
L 220.758813 90.495316 
L 225.41744 97.16981 
L 230.076067 103.748727 
L 234.734694 109.67453 
L 239.393321 114.310038 
L 244.051948 116.938419 
L 248.710575 116.763193 
L 253.369202 112.908235 
L 258.027829 104.417769 
L 262.686456 90.256372 
L 267.345083 69.308975 
L 272.003711 40.380858 
L 276.662338 2.197656 
L 276.967646 -1 
" style="fill:none;stroke:#ff0000;stroke-linecap:square;"/>
   </g>
   <g id="line2d_4">
    <path clip-path="url(#p7bc8c82bef)" d="M 81 -408.857143 
M 100.701716 -1 
L 104.293135 44.063951 
L 108.951763 89.75961 
L 113.61039 124.209318 
L 118.269017 148.846736 
L 122.927644 165.025879 
L 127.586271 174.021113 
L 132.244898 177.027158 
L 136.903525 175.159083 
L 141.562152 169.452311 
L 146.220779 160.862617 
L 150.879406 150.266128 
L 155.538033 138.459322 
L 160.19666 126.159032 
L 164.855288 114.002439 
L 169.513915 102.54708 
L 174.172542 92.270842 
L 178.831169 83.571964 
L 183.489796 76.769038 
L 188.148423 72.101007 
L 192.80705 69.727168 
L 197.465677 69.727168 
L 202.124304 72.101007 
L 206.782931 76.769038 
L 211.441558 83.571964 
L 216.100186 92.270842 
L 220.758813 102.54708 
L 225.41744 114.002439 
L 230.076067 126.159032 
L 234.734694 138.459322 
L 239.393321 150.266128 
L 244.051948 160.862617 
L 248.710575 169.452311 
L 253.369202 175.159083 
L 258.027829 177.027158 
L 262.686456 174.021113 
L 267.345083 165.025879 
L 272.003711 148.846736 
L 276.662338 124.209318 
L 281.320965 89.75961 
L 285.979592 44.063951 
L 289.571011 -1 
" style="fill:none;stroke:#00bfbf;stroke-linecap:square;"/>
   </g>
   <g id="patch_3">
    <path d="M 81 21.6 
L 309.272727 21.6 
" style="fill:none;"/>
   </g>
   <g id="patch_4">
    <path d="M 309.272727 189 
L 309.272727 21.6 
" style="fill:none;"/>
   </g>
   <g id="patch_5">
    <path d="M 81 105.3 
L 309.272727 105.3 
" style="fill:none;stroke:#000000;stroke-linecap:square;stroke-linejoin:miter;"/>
   </g>
   <g id="patch_6">
    <path d="M 195.136364 189 
L 195.136364 21.6 
" style="fill:none;stroke:#000000;stroke-linecap:square;stroke-linejoin:miter;"/>
   </g>
   <g id="matplotlib.axis_1"/>
   <g id="matplotlib.axis_2"/>
   <g id="text_1">
    <!-- $\phi$ -->
    <defs>
     <path d="M 19.390625 -19.484375 
L 23.875 -1.421875 
Q 18.796875 -1.421875 14.40625 0.953125 
Q 10.015625 3.328125 7.34375 7.5625 
Q 4.6875 11.8125 4.6875 16.796875 
Q 4.6875 22.21875 7.375 27.140625 
Q 10.0625 32.078125 14.71875 36.109375 
Q 19.390625 40.140625 24.75 42.3125 
Q 30.125 44.484375 35.40625 44.484375 
L 41.40625 68.796875 
Q 41.609375 69.390625 42.1875 69.390625 
L 43.40625 69.390625 
Q 43.796875 69.390625 44.03125 69.046875 
Q 44.28125 68.703125 44.28125 68.40625 
L 38.28125 44.484375 
Q 42.046875 44.484375 45.5625 43.109375 
Q 49.078125 41.75 51.78125 39.28125 
Q 54.5 36.8125 56 33.46875 
Q 57.515625 30.125 57.515625 26.3125 
Q 57.515625 20.90625 54.828125 15.96875 
Q 52.15625 11.03125 47.609375 7.078125 
Q 43.0625 3.125 37.46875 0.84375 
Q 31.890625 -1.421875 26.8125 -1.421875 
L 22.21875 -19.921875 
Q 22.015625 -20.515625 21.390625 -20.515625 
L 20.21875 -20.515625 
Q 19.828125 -20.515625 19.609375 -20.140625 
Q 19.390625 -19.78125 19.390625 -19.484375 
M 24.515625 1.21875 
L 34.71875 41.890625 
Q 32.171875 41.890625 29.390625 40.859375 
Q 26.609375 39.84375 24.140625 38.28125 
Q 21.6875 36.71875 19.671875 34.71875 
Q 17.234375 32.28125 15.375 28.953125 
Q 13.53125 25.640625 12.578125 21.953125 
Q 11.625 18.265625 11.625 14.703125 
Q 11.625 10.9375 13.234375 7.859375 
Q 14.84375 4.78125 17.765625 3 
Q 20.703125 1.21875 24.515625 1.21875 
M 27.484375 1.21875 
Q 31.25 1.21875 35.5 3.359375 
Q 39.75 5.515625 42.484375 8.40625 
Q 46.234375 12.109375 48.40625 17.5 
Q 50.59375 22.90625 50.59375 28.421875 
Q 50.59375 32.125 48.96875 35.21875 
Q 47.359375 38.328125 44.421875 40.109375 
Q 41.5 41.890625 37.703125 41.890625 
z
" id="Cmmi10-c1"/>
    </defs>
    <g transform="translate(297.859090909 98.1257142857)scale(0.18 -0.18)">
     <use transform="translate(0.0 0.609375)" xlink:href="#Cmmi10-c1"/>
    </g>
   </g>
   <g id="text_2">
    <!-- $V(\phi)$ -->
    <defs>
     <path d="M 31 -24.8125 
Q 25.4375 -20.40625 21.40625 -14.71875 
Q 17.390625 -9.03125 14.8125 -2.578125 
Q 12.25 3.859375 10.984375 10.890625 
Q 9.71875 17.921875 9.71875 25 
Q 9.71875 32.171875 10.984375 39.203125 
Q 12.25 46.234375 14.859375 52.734375 
Q 17.484375 59.234375 21.53125 64.890625 
Q 25.59375 70.5625 31 74.8125 
Q 31 75 31.5 75 
L 32.421875 75 
Q 32.71875 75 32.953125 74.734375 
Q 33.203125 74.46875 33.203125 74.125 
Q 33.203125 73.6875 33.015625 73.484375 
Q 28.125 68.703125 24.875 63.234375 
Q 21.625 57.765625 19.640625 51.578125 
Q 17.671875 45.40625 16.796875 38.78125 
Q 15.921875 32.171875 15.921875 25 
Q 15.921875 -6.78125 32.90625 -23.296875 
Q 33.203125 -23.578125 33.203125 -24.125 
Q 33.203125 -24.359375 32.9375 -24.671875 
Q 32.671875 -25 32.421875 -25 
L 31.5 -25 
Q 31 -25 31 -24.8125 
" id="Cmr10-28"/>
     <path d="M 6.5 -25 
Q 5.609375 -25 5.609375 -24.125 
Q 5.609375 -23.6875 5.8125 -23.484375 
Q 22.90625 -6.78125 22.90625 25 
Q 22.90625 56.78125 6 73.296875 
Q 5.609375 73.53125 5.609375 74.125 
Q 5.609375 74.46875 5.875 74.734375 
Q 6.15625 75 6.5 75 
L 7.421875 75 
Q 7.71875 75 7.90625 74.8125 
Q 15.09375 69.140625 19.875 61.03125 
Q 24.65625 52.9375 26.875 43.75 
Q 29.109375 34.578125 29.109375 25 
Q 29.109375 17.921875 27.90625 11.0625 
Q 26.703125 4.203125 24.09375 -2.453125 
Q 21.484375 -9.125 17.484375 -14.765625 
Q 13.484375 -20.40625 7.90625 -24.8125 
Q 7.71875 -25 7.421875 -25 
z
" id="Cmr10-29"/>
     <path d="M 22.015625 -1.125 
L 14.015625 62.59375 
Q 13.28125 64.796875 6.5 64.796875 
Q 5.515625 64.796875 5.515625 66.109375 
Q 5.71875 67.1875 6 67.75 
Q 6.296875 68.3125 7.171875 68.3125 
L 31.59375 68.3125 
Q 32.125 68.3125 32.375 67.921875 
Q 32.625 67.53125 32.625 67 
Q 32.234375 64.796875 31.296875 64.796875 
Q 23.484375 64.796875 23 62.109375 
L 29.59375 9.8125 
L 60.40625 58.984375 
Q 61.28125 60.640625 61.28125 61.625 
Q 61.28125 63.375 59.6875 64.078125 
Q 58.109375 64.796875 56 64.796875 
Q 54.984375 64.796875 54.984375 66.109375 
Q 55.171875 66.890625 55.3125 67.328125 
Q 55.46875 67.78125 55.765625 68.046875 
Q 56.0625 68.3125 56.6875 68.3125 
L 75.984375 68.3125 
Q 76.90625 68.3125 76.90625 67 
Q 76.515625 64.796875 75.59375 64.796875 
Q 68.0625 64.796875 63.8125 58.203125 
Q 63.625 58.015625 63.484375 58.015625 
L 26.609375 -1.125 
Q 25.875 -2.203125 24.703125 -2.203125 
L 23.296875 -2.203125 
Q 22.171875 -2.203125 22.015625 -1.125 
" id="Cmmi10-56"/>
    </defs>
    <g transform="translate(197.419090909 21.6)scale(0.18 -0.18)">
     <use xlink:href="#Cmmi10-56"/>
     <use transform="translate(58.30078125 0.0)" xlink:href="#Cmr10-28"/>
     <use transform="translate(97.119140625 0.0)" xlink:href="#Cmmi10-c1"/>
     <use transform="translate(156.640625 0.0)" xlink:href="#Cmr10-29"/>
    </g>
   </g>
  </g>
  <g id="axes_2">
   <g id="patch_7">
    <path d="M 354.927273 189 
L 583.2 189 
L 583.2 21.6 
L 354.927273 21.6 
z
" style="fill:#ffffff;"/>
   </g>
   <g id="line2d_5">
    <path clip-path="url(#p89704c61c7)" d="M 392.972727 191.886207 
L 396.078479 182.654192 
L 399.18423 173.806843 
L 402.289981 165.344163 
L 405.395733 157.266149 
L 408.501484 149.572803 
L 411.607236 142.264124 
L 414.712987 135.340113 
L 417.818738 128.800768 
L 420.92449 122.646091 
L 424.030241 116.876082 
L 427.135993 111.490739 
L 430.241744 106.490064 
L 433.347495 101.874057 
L 436.453247 97.642716 
L 439.558998 93.796043 
L 442.66475 90.334038 
L 445.770501 87.256699 
L 448.876252 84.564028 
L 451.982004 82.256024 
L 455.087755 80.332688 
L 458.193506 78.794018 
L 461.299258 77.640016 
L 464.405009 76.870682 
L 467.510761 76.486014 
L 470.616512 76.486014 
L 473.722263 76.870682 
L 476.828015 77.640016 
L 479.933766 78.794018 
L 483.039518 80.332688 
L 486.145269 82.256024 
L 489.25102 84.564028 
L 492.356772 87.256699 
L 495.462523 90.334038 
L 498.568275 93.796043 
L 501.674026 97.642716 
L 504.779777 101.874057 
L 507.885529 106.490064 
L 510.99128 111.490739 
L 514.097032 116.876082 
L 517.202783 122.646091 
L 520.308534 128.800768 
L 523.414286 135.340113 
L 526.520037 142.264124 
L 529.625788 149.572803 
L 532.73154 157.266149 
L 535.837291 165.344163 
L 538.943043 173.806843 
L 542.048794 182.654192 
L 545.154545 191.886207 
" style="fill:none;stroke:#0000ff;stroke-linecap:square;"/>
   </g>
   <g id="line2d_6">
    <path clip-path="url(#p89704c61c7)" d="M 392.972727 422.782759 
M 420.598577 217 
L 420.92449 215.062412 
L 424.030241 197.752383 
L 427.135993 181.596356 
L 430.241744 166.594331 
L 433.347495 152.746308 
L 436.453247 140.052287 
L 439.558998 128.512268 
L 442.66475 118.126251 
L 445.770501 108.894235 
L 448.876252 100.816222 
L 451.982004 93.89221 
L 455.087755 88.122201 
L 458.193506 83.506193 
L 461.299258 80.044187 
L 464.405009 77.736183 
L 467.510761 76.582181 
L 470.616512 76.582181 
L 473.722263 77.736183 
L 476.828015 80.044187 
L 479.933766 83.506193 
L 483.039518 88.122201 
L 486.145269 93.89221 
L 489.25102 100.816222 
L 492.356772 108.894235 
L 495.462523 118.126251 
L 498.568275 128.512268 
L 501.674026 140.052287 
L 504.779777 152.746308 
L 507.885529 166.594331 
L 510.99128 181.596356 
L 514.097032 197.752383 
L 517.202783 215.062412 
L 517.528696 217 
" style="fill:none;stroke:#008000;stroke-dasharray:6.000000,6.000000;stroke-dashoffset:0.0;"/>
   </g>
   <g id="patch_8">
    <path d="M 354.927273 21.6 
L 583.2 21.6 
" style="fill:none;"/>
   </g>
   <g id="patch_9">
    <path d="M 583.2 189 
L 583.2 21.6 
" style="fill:none;"/>
   </g>
   <g id="patch_10">
    <path d="M 354.927273 189 
L 583.2 189 
" style="fill:none;stroke:#000000;stroke-linecap:square;stroke-linejoin:miter;"/>
   </g>
   <g id="patch_11">
    <path d="M 469.063636 189 
L 469.063636 21.6 
" style="fill:none;stroke:#000000;stroke-linecap:square;stroke-linejoin:miter;"/>
   </g>
   <g id="matplotlib.axis_3"/>
   <g id="matplotlib.axis_4"/>
   <g id="text_3">
    <!-- $\phi$ -->
    <g transform="translate(571.786363636 180.34137931)scale(0.18 -0.18)">
     <use transform="translate(0.0 0.609375)" xlink:href="#Cmmi10-c1"/>
    </g>
   </g>
   <g id="text_4">
    <!-- $T$ -->
    <defs>
     <path d="M 4.59375 1.3125 
Q 4.640625 1.5625 4.8125 2.1875 
Q 4.984375 2.828125 5.25 3.171875 
Q 5.515625 3.515625 6 3.515625 
Q 14.59375 3.515625 17.390625 4 
Q 20.0625 4.6875 20.609375 6.890625 
L 34.28125 61.8125 
Q 34.71875 63.03125 34.71875 64.015625 
Q 34.71875 64.796875 31.203125 64.796875 
L 25.390625 64.796875 
Q 18.703125 64.796875 15.0625 62.734375 
Q 11.421875 60.6875 9.71875 57.3125 
Q 8.015625 53.953125 5.328125 46.296875 
Q 4.984375 45.40625 4.296875 45.40625 
L 3.421875 45.40625 
Q 2.390625 45.40625 2.390625 46.6875 
L 9.515625 67.390625 
Q 9.71875 68.3125 10.5 68.3125 
L 69.578125 68.3125 
Q 70.609375 68.3125 70.609375 67 
L 67.28125 46.296875 
Q 67.28125 46 66.9375 45.703125 
Q 66.609375 45.40625 66.3125 45.40625 
L 65.375 45.40625 
Q 64.40625 45.40625 64.40625 46.6875 
Q 65.484375 53.765625 65.484375 56.6875 
Q 65.484375 60.203125 64.015625 62 
Q 62.546875 63.8125 60.203125 64.296875 
Q 57.859375 64.796875 54.109375 64.796875 
L 48.1875 64.796875 
Q 45.515625 64.796875 44.578125 64.296875 
Q 43.65625 63.8125 43.015625 61.375 
L 29.296875 6.5 
Q 29.25 6.296875 29.21875 6.09375 
Q 29.203125 5.90625 29.109375 5.609375 
Q 29.109375 4.34375 30.609375 4 
Q 33.203125 3.515625 41.703125 3.515625 
Q 42.671875 3.515625 42.671875 2.203125 
Q 42.328125 0.78125 42.125 0.390625 
Q 41.9375 0 41.015625 0 
L 5.609375 0 
Q 4.59375 0 4.59375 1.3125 
" id="Cmmi10-54"/>
    </defs>
    <g transform="translate(472.868181818 24.4862068966)scale(0.18 -0.18)">
     <use transform="translate(0.0 0.6875)" xlink:href="#Cmmi10-54"/>
    </g>
   </g>
   <g id="text_5">
    <!-- $T_c$ -->
    <defs>
     <path d="M 11.71875 11.921875 
Q 11.71875 7.5625 13.9375 4.53125 
Q 16.15625 1.515625 20.3125 1.515625 
Q 26.265625 1.515625 31.75 4.25 
Q 37.25 6.984375 40.71875 11.8125 
Q 41.015625 12.109375 41.5 12.109375 
Q 42 12.109375 42.5 11.546875 
Q 43.015625 10.984375 43.015625 10.5 
Q 43.015625 10.109375 42.828125 9.90625 
Q 39.15625 4.78125 32.953125 1.828125 
Q 26.765625 -1.125 20.125 -1.125 
Q 15.328125 -1.125 11.671875 1.140625 
Q 8.015625 3.421875 6 7.21875 
Q 4 11.03125 4 15.828125 
Q 4 22.5625 7.765625 29.203125 
Q 11.53125 35.84375 17.78125 40.015625 
Q 24.03125 44.1875 30.90625 44.1875 
Q 35.40625 44.1875 38.984375 42.015625 
Q 42.578125 39.84375 42.578125 35.59375 
Q 42.578125 32.859375 40.984375 30.921875 
Q 39.40625 29 36.71875 29 
Q 35.109375 29 34 30 
Q 32.90625 31 32.90625 32.625 
Q 32.90625 34.96875 34.609375 36.625 
Q 36.328125 38.28125 38.625 38.28125 
L 38.8125 38.28125 
Q 37.640625 39.984375 35.421875 40.796875 
Q 33.203125 41.609375 30.8125 41.609375 
Q 24.953125 41.609375 20.546875 36.59375 
Q 16.15625 31.59375 13.9375 24.625 
Q 11.71875 17.671875 11.71875 11.921875 
" id="Cmmi10-63"/>
    </defs>
    <g transform="translate(472.868181818 73.5517241379)scale(0.14 -0.14)">
     <use transform="translate(0.0 0.6875)" xlink:href="#Cmmi10-54"/>
     <use transform="translate(58.3984375 -16.31875)scale(0.7)" xlink:href="#Cmmi10-63"/>
    </g>
   </g>
   <g id="patch_12">
    <path d="M 404.4524 83.109463 
Q 408.08558 109.089574 411.563915 133.962426 
" style="fill:none;stroke:#000000;stroke-linecap:round;"/>
    <path d="M 412.990653 129.723981 
L 411.563915 133.962426 
L 409.029201 130.277968 
" style="fill:none;stroke:#000000;stroke-linecap:round;"/>
   </g>
   <g id="text_6">
    <!-- Coexistence line -->
    <defs>
     <path id="BitstreamVeraSans-Roman-20"/>
     <path d="M 54.890625 33.015625 
L 54.890625 0 
L 45.90625 0 
L 45.90625 32.71875 
Q 45.90625 40.484375 42.875 44.328125 
Q 39.84375 48.1875 33.796875 48.1875 
Q 26.515625 48.1875 22.3125 43.546875 
Q 18.109375 38.921875 18.109375 30.90625 
L 18.109375 0 
L 9.078125 0 
L 9.078125 54.6875 
L 18.109375 54.6875 
L 18.109375 46.1875 
Q 21.34375 51.125 25.703125 53.5625 
Q 30.078125 56 35.796875 56 
Q 45.21875 56 50.046875 50.171875 
Q 54.890625 44.34375 54.890625 33.015625 
" id="BitstreamVeraSans-Roman-6e"/>
     <path d="M 30.609375 48.390625 
Q 23.390625 48.390625 19.1875 42.75 
Q 14.984375 37.109375 14.984375 27.296875 
Q 14.984375 17.484375 19.15625 11.84375 
Q 23.34375 6.203125 30.609375 6.203125 
Q 37.796875 6.203125 41.984375 11.859375 
Q 46.1875 17.53125 46.1875 27.296875 
Q 46.1875 37.015625 41.984375 42.703125 
Q 37.796875 48.390625 30.609375 48.390625 
M 30.609375 56 
Q 42.328125 56 49.015625 48.375 
Q 55.71875 40.765625 55.71875 27.296875 
Q 55.71875 13.875 49.015625 6.21875 
Q 42.328125 -1.421875 30.609375 -1.421875 
Q 18.84375 -1.421875 12.171875 6.21875 
Q 5.515625 13.875 5.515625 27.296875 
Q 5.515625 40.765625 12.171875 48.375 
Q 18.84375 56 30.609375 56 
" id="BitstreamVeraSans-Roman-6f"/>
     <path d="M 9.421875 75.984375 
L 18.40625 75.984375 
L 18.40625 0 
L 9.421875 0 
z
" id="BitstreamVeraSans-Roman-6c"/>
     <path d="M 9.421875 54.6875 
L 18.40625 54.6875 
L 18.40625 0 
L 9.421875 0 
z
M 9.421875 75.984375 
L 18.40625 75.984375 
L 18.40625 64.59375 
L 9.421875 64.59375 
z
" id="BitstreamVeraSans-Roman-69"/>
     <path d="M 54.890625 54.6875 
L 35.109375 28.078125 
L 55.90625 0 
L 45.3125 0 
L 29.390625 21.484375 
L 13.484375 0 
L 2.875 0 
L 24.125 28.609375 
L 4.6875 54.6875 
L 15.28125 54.6875 
L 29.78125 35.203125 
L 44.28125 54.6875 
z
" id="BitstreamVeraSans-Roman-78"/>
     <path d="M 56.203125 29.59375 
L 56.203125 25.203125 
L 14.890625 25.203125 
Q 15.484375 15.921875 20.484375 11.0625 
Q 25.484375 6.203125 34.421875 6.203125 
Q 39.59375 6.203125 44.453125 7.46875 
Q 49.3125 8.734375 54.109375 11.28125 
L 54.109375 2.78125 
Q 49.265625 0.734375 44.1875 -0.34375 
Q 39.109375 -1.421875 33.890625 -1.421875 
Q 20.796875 -1.421875 13.15625 6.1875 
Q 5.515625 13.8125 5.515625 26.8125 
Q 5.515625 40.234375 12.765625 48.109375 
Q 20.015625 56 32.328125 56 
Q 43.359375 56 49.78125 48.890625 
Q 56.203125 41.796875 56.203125 29.59375 
M 47.21875 32.234375 
Q 47.125 39.59375 43.09375 43.984375 
Q 39.0625 48.390625 32.421875 48.390625 
Q 24.90625 48.390625 20.390625 44.140625 
Q 15.875 39.890625 15.1875 32.171875 
z
" id="BitstreamVeraSans-Roman-65"/>
     <path d="M 64.40625 67.28125 
L 64.40625 56.890625 
Q 59.421875 61.53125 53.78125 63.8125 
Q 48.140625 66.109375 41.796875 66.109375 
Q 29.296875 66.109375 22.65625 58.46875 
Q 16.015625 50.828125 16.015625 36.375 
Q 16.015625 21.96875 22.65625 14.328125 
Q 29.296875 6.6875 41.796875 6.6875 
Q 48.140625 6.6875 53.78125 8.984375 
Q 59.421875 11.28125 64.40625 15.921875 
L 64.40625 5.609375 
Q 59.234375 2.09375 53.4375 0.328125 
Q 47.65625 -1.421875 41.21875 -1.421875 
Q 24.65625 -1.421875 15.125 8.703125 
Q 5.609375 18.84375 5.609375 36.375 
Q 5.609375 53.953125 15.125 64.078125 
Q 24.65625 74.21875 41.21875 74.21875 
Q 47.75 74.21875 53.53125 72.484375 
Q 59.328125 70.75 64.40625 67.28125 
" id="BitstreamVeraSans-Roman-43"/>
     <path d="M 18.3125 70.21875 
L 18.3125 54.6875 
L 36.8125 54.6875 
L 36.8125 47.703125 
L 18.3125 47.703125 
L 18.3125 18.015625 
Q 18.3125 11.328125 20.140625 9.421875 
Q 21.96875 7.515625 27.59375 7.515625 
L 36.8125 7.515625 
L 36.8125 0 
L 27.59375 0 
Q 17.1875 0 13.234375 3.875 
Q 9.28125 7.765625 9.28125 18.015625 
L 9.28125 47.703125 
L 2.6875 47.703125 
L 2.6875 54.6875 
L 9.28125 54.6875 
L 9.28125 70.21875 
z
" id="BitstreamVeraSans-Roman-74"/>
     <path d="M 44.28125 53.078125 
L 44.28125 44.578125 
Q 40.484375 46.53125 36.375 47.5 
Q 32.28125 48.484375 27.875 48.484375 
Q 21.1875 48.484375 17.84375 46.4375 
Q 14.5 44.390625 14.5 40.28125 
Q 14.5 37.15625 16.890625 35.375 
Q 19.28125 33.59375 26.515625 31.984375 
L 29.59375 31.296875 
Q 39.15625 29.25 43.1875 25.515625 
Q 47.21875 21.78125 47.21875 15.09375 
Q 47.21875 7.46875 41.1875 3.015625 
Q 35.15625 -1.421875 24.609375 -1.421875 
Q 20.21875 -1.421875 15.453125 -0.5625 
Q 10.6875 0.296875 5.421875 2 
L 5.421875 11.28125 
Q 10.40625 8.6875 15.234375 7.390625 
Q 20.0625 6.109375 24.8125 6.109375 
Q 31.15625 6.109375 34.5625 8.28125 
Q 37.984375 10.453125 37.984375 14.40625 
Q 37.984375 18.0625 35.515625 20.015625 
Q 33.0625 21.96875 24.703125 23.78125 
L 21.578125 24.515625 
Q 13.234375 26.265625 9.515625 29.90625 
Q 5.8125 33.546875 5.8125 39.890625 
Q 5.8125 47.609375 11.28125 51.796875 
Q 16.75 56 26.8125 56 
Q 31.78125 56 36.171875 55.265625 
Q 40.578125 54.546875 44.28125 53.078125 
" id="BitstreamVeraSans-Roman-73"/>
     <path d="M 48.78125 52.59375 
L 48.78125 44.1875 
Q 44.96875 46.296875 41.140625 47.34375 
Q 37.3125 48.390625 33.40625 48.390625 
Q 24.65625 48.390625 19.8125 42.84375 
Q 14.984375 37.3125 14.984375 27.296875 
Q 14.984375 17.28125 19.8125 11.734375 
Q 24.65625 6.203125 33.40625 6.203125 
Q 37.3125 6.203125 41.140625 7.25 
Q 44.96875 8.296875 48.78125 10.40625 
L 48.78125 2.09375 
Q 45.015625 0.34375 40.984375 -0.53125 
Q 36.96875 -1.421875 32.421875 -1.421875 
Q 20.0625 -1.421875 12.78125 6.34375 
Q 5.515625 14.109375 5.515625 27.296875 
Q 5.515625 40.671875 12.859375 48.328125 
Q 20.21875 56 33.015625 56 
Q 37.15625 56 41.109375 55.140625 
Q 45.0625 54.296875 48.78125 52.59375 
" id="BitstreamVeraSans-Roman-63"/>
    </defs>
    <g transform="translate(361.995454545 77.0482758621)scale(0.1 -0.1)">
     <use xlink:href="#BitstreamVeraSans-Roman-43"/>
     <use x="69.82421875" xlink:href="#BitstreamVeraSans-Roman-6f"/>
     <use x="131.005859375" xlink:href="#BitstreamVeraSans-Roman-65"/>
     <use x="192.513671875" xlink:href="#BitstreamVeraSans-Roman-78"/>
     <use x="251.693359375" xlink:href="#BitstreamVeraSans-Roman-69"/>
     <use x="279.4765625" xlink:href="#BitstreamVeraSans-Roman-73"/>
     <use x="331.576171875" xlink:href="#BitstreamVeraSans-Roman-74"/>
     <use x="370.78515625" xlink:href="#BitstreamVeraSans-Roman-65"/>
     <use x="432.30859375" xlink:href="#BitstreamVeraSans-Roman-6e"/>
     <use x="495.6875" xlink:href="#BitstreamVeraSans-Roman-63"/>
     <use x="550.66796875" xlink:href="#BitstreamVeraSans-Roman-65"/>
     <use x="612.19140625" xlink:href="#BitstreamVeraSans-Roman-20"/>
     <use x="643.978515625" xlink:href="#BitstreamVeraSans-Roman-6c"/>
     <use x="671.76171875" xlink:href="#BitstreamVeraSans-Roman-69"/>
     <use x="699.544921875" xlink:href="#BitstreamVeraSans-Roman-6e"/>
     <use x="762.923828125" xlink:href="#BitstreamVeraSans-Roman-65"/>
    </g>
   </g>
   <g id="patch_13">
    <path d="M 543.598525 97.219657 
Q 525.911706 123.519891 508.8488 148.892369 
" style="fill:none;stroke:#000000;stroke-linecap:round;"/>
    <path d="M 512.740602 146.689216 
L 508.8488 148.892369 
L 509.421359 144.457036 
" style="fill:none;stroke:#000000;stroke-linecap:round;"/>
   </g>
   <g id="text_7">
    <!-- Spinodal line -->
    <defs>
     <path d="M 45.40625 46.390625 
L 45.40625 75.984375 
L 54.390625 75.984375 
L 54.390625 0 
L 45.40625 0 
L 45.40625 8.203125 
Q 42.578125 3.328125 38.25 0.953125 
Q 33.9375 -1.421875 27.875 -1.421875 
Q 17.96875 -1.421875 11.734375 6.484375 
Q 5.515625 14.40625 5.515625 27.296875 
Q 5.515625 40.1875 11.734375 48.09375 
Q 17.96875 56 27.875 56 
Q 33.9375 56 38.25 53.625 
Q 42.578125 51.265625 45.40625 46.390625 
M 14.796875 27.296875 
Q 14.796875 17.390625 18.875 11.75 
Q 22.953125 6.109375 30.078125 6.109375 
Q 37.203125 6.109375 41.296875 11.75 
Q 45.40625 17.390625 45.40625 27.296875 
Q 45.40625 37.203125 41.296875 42.84375 
Q 37.203125 48.484375 30.078125 48.484375 
Q 22.953125 48.484375 18.875 42.84375 
Q 14.796875 37.203125 14.796875 27.296875 
" id="BitstreamVeraSans-Roman-64"/>
     <path d="M 53.515625 70.515625 
L 53.515625 60.890625 
Q 47.90625 63.578125 42.921875 64.890625 
Q 37.9375 66.21875 33.296875 66.21875 
Q 25.25 66.21875 20.875 63.09375 
Q 16.5 59.96875 16.5 54.203125 
Q 16.5 49.359375 19.40625 46.890625 
Q 22.3125 44.4375 30.421875 42.921875 
L 36.375 41.703125 
Q 47.40625 39.59375 52.65625 34.296875 
Q 57.90625 29 57.90625 20.125 
Q 57.90625 9.515625 50.796875 4.046875 
Q 43.703125 -1.421875 29.984375 -1.421875 
Q 24.8125 -1.421875 18.96875 -0.25 
Q 13.140625 0.921875 6.890625 3.21875 
L 6.890625 13.375 
Q 12.890625 10.015625 18.65625 8.296875 
Q 24.421875 6.59375 29.984375 6.59375 
Q 38.421875 6.59375 43.015625 9.90625 
Q 47.609375 13.234375 47.609375 19.390625 
Q 47.609375 24.75 44.3125 27.78125 
Q 41.015625 30.8125 33.5 32.328125 
L 27.484375 33.5 
Q 16.453125 35.6875 11.515625 40.375 
Q 6.59375 45.0625 6.59375 53.421875 
Q 6.59375 63.09375 13.40625 68.65625 
Q 20.21875 74.21875 32.171875 74.21875 
Q 37.3125 74.21875 42.625 73.28125 
Q 47.953125 72.359375 53.515625 70.515625 
" id="BitstreamVeraSans-Roman-53"/>
     <path d="M 34.28125 27.484375 
Q 23.390625 27.484375 19.1875 25 
Q 14.984375 22.515625 14.984375 16.5 
Q 14.984375 11.71875 18.140625 8.90625 
Q 21.296875 6.109375 26.703125 6.109375 
Q 34.1875 6.109375 38.703125 11.40625 
Q 43.21875 16.703125 43.21875 25.484375 
L 43.21875 27.484375 
z
M 52.203125 31.203125 
L 52.203125 0 
L 43.21875 0 
L 43.21875 8.296875 
Q 40.140625 3.328125 35.546875 0.953125 
Q 30.953125 -1.421875 24.3125 -1.421875 
Q 15.921875 -1.421875 10.953125 3.296875 
Q 6 8.015625 6 15.921875 
Q 6 25.140625 12.171875 29.828125 
Q 18.359375 34.515625 30.609375 34.515625 
L 43.21875 34.515625 
L 43.21875 35.40625 
Q 43.21875 41.609375 39.140625 45 
Q 35.0625 48.390625 27.6875 48.390625 
Q 23 48.390625 18.546875 47.265625 
Q 14.109375 46.140625 10.015625 43.890625 
L 10.015625 52.203125 
Q 14.9375 54.109375 19.578125 55.046875 
Q 24.21875 56 28.609375 56 
Q 40.484375 56 46.34375 49.84375 
Q 52.203125 43.703125 52.203125 31.203125 
" id="BitstreamVeraSans-Roman-61"/>
     <path d="M 18.109375 8.203125 
L 18.109375 -20.796875 
L 9.078125 -20.796875 
L 9.078125 54.6875 
L 18.109375 54.6875 
L 18.109375 46.390625 
Q 20.953125 51.265625 25.265625 53.625 
Q 29.59375 56 35.59375 56 
Q 45.5625 56 51.78125 48.09375 
Q 58.015625 40.1875 58.015625 27.296875 
Q 58.015625 14.40625 51.78125 6.484375 
Q 45.5625 -1.421875 35.59375 -1.421875 
Q 29.59375 -1.421875 25.265625 0.953125 
Q 20.953125 3.328125 18.109375 8.203125 
M 48.6875 27.296875 
Q 48.6875 37.203125 44.609375 42.84375 
Q 40.53125 48.484375 33.40625 48.484375 
Q 26.265625 48.484375 22.1875 42.84375 
Q 18.109375 37.203125 18.109375 27.296875 
Q 18.109375 17.390625 22.1875 11.75 
Q 26.265625 6.109375 33.40625 6.109375 
Q 40.53125 6.109375 44.609375 11.75 
Q 48.6875 17.390625 48.6875 27.296875 
" id="BitstreamVeraSans-Roman-70"/>
    </defs>
    <g transform="translate(517.109090909 91.4793103448)scale(0.1 -0.1)">
     <use xlink:href="#BitstreamVeraSans-Roman-53"/>
     <use x="63.4765625" xlink:href="#BitstreamVeraSans-Roman-70"/>
     <use x="126.953125" xlink:href="#BitstreamVeraSans-Roman-69"/>
     <use x="154.736328125" xlink:href="#BitstreamVeraSans-Roman-6e"/>
     <use x="218.115234375" xlink:href="#BitstreamVeraSans-Roman-6f"/>
     <use x="279.296875" xlink:href="#BitstreamVeraSans-Roman-64"/>
     <use x="342.7734375" xlink:href="#BitstreamVeraSans-Roman-61"/>
     <use x="404.052734375" xlink:href="#BitstreamVeraSans-Roman-6c"/>
     <use x="431.8359375" xlink:href="#BitstreamVeraSans-Roman-20"/>
     <use x="463.623046875" xlink:href="#BitstreamVeraSans-Roman-6c"/>
     <use x="491.40625" xlink:href="#BitstreamVeraSans-Roman-69"/>
     <use x="519.189453125" xlink:href="#BitstreamVeraSans-Roman-6e"/>
     <use x="582.568359375" xlink:href="#BitstreamVeraSans-Roman-65"/>
    </g>
   </g>
   <g id="text_8">
    <g id="patch_14">
     <path d="M 377.754545 49.769343 
L 440.931108 49.769343 
Q 443.931108 49.769343 443.931108 46.769343 
L 443.931108 37.091218 
Q 443.931108 34.091218 440.931108 34.091218 
L 377.754545 34.091218 
Q 374.754545 34.091218 374.754545 37.091218 
L 374.754545 46.769343 
Q 374.754545 49.769343 377.754545 49.769343 
z
" style="fill:#ffcccc;stroke:#ff8080;stroke-linejoin:miter;"/>
    </g>
    <!-- Mixed phase -->
    <defs>
     <path d="M 9.8125 72.90625 
L 24.515625 72.90625 
L 43.109375 23.296875 
L 61.8125 72.90625 
L 76.515625 72.90625 
L 76.515625 0 
L 66.890625 0 
L 66.890625 64.015625 
L 48.09375 14.015625 
L 38.1875 14.015625 
L 19.390625 64.015625 
L 19.390625 0 
L 9.8125 0 
z
" id="BitstreamVeraSans-Roman-4d"/>
     <path d="M 54.890625 33.015625 
L 54.890625 0 
L 45.90625 0 
L 45.90625 32.71875 
Q 45.90625 40.484375 42.875 44.328125 
Q 39.84375 48.1875 33.796875 48.1875 
Q 26.515625 48.1875 22.3125 43.546875 
Q 18.109375 38.921875 18.109375 30.90625 
L 18.109375 0 
L 9.078125 0 
L 9.078125 75.984375 
L 18.109375 75.984375 
L 18.109375 46.1875 
Q 21.34375 51.125 25.703125 53.5625 
Q 30.078125 56 35.796875 56 
Q 45.21875 56 50.046875 50.171875 
Q 54.890625 44.34375 54.890625 33.015625 
" id="BitstreamVeraSans-Roman-68"/>
    </defs>
    <g transform="translate(377.754545455 44.6896551724)scale(0.1 -0.1)">
     <use xlink:href="#BitstreamVeraSans-Roman-4d"/>
     <use x="86.279296875" xlink:href="#BitstreamVeraSans-Roman-69"/>
     <use x="114.0625" xlink:href="#BitstreamVeraSans-Roman-78"/>
     <use x="173.1953125" xlink:href="#BitstreamVeraSans-Roman-65"/>
     <use x="234.71875" xlink:href="#BitstreamVeraSans-Roman-64"/>
     <use x="298.1953125" xlink:href="#BitstreamVeraSans-Roman-20"/>
     <use x="329.982421875" xlink:href="#BitstreamVeraSans-Roman-70"/>
     <use x="393.458984375" xlink:href="#BitstreamVeraSans-Roman-68"/>
     <use x="456.837890625" xlink:href="#BitstreamVeraSans-Roman-61"/>
     <use x="518.1171875" xlink:href="#BitstreamVeraSans-Roman-73"/>
     <use x="570.216796875" xlink:href="#BitstreamVeraSans-Roman-65"/>
    </g>
   </g>
   <g id="text_9">
    <g id="patch_15">
     <path d="M 427.213636 182.53486 
L 512.207386 182.53486 
Q 515.207386 182.53486 515.207386 179.53486 
L 515.207386 169.856735 
Q 515.207386 166.856735 512.207386 166.856735 
L 427.213636 166.856735 
Q 424.213636 166.856735 424.213636 169.856735 
L 424.213636 179.53486 
Q 424.213636 182.53486 427.213636 182.53486 
z
" style="fill:#ffcccc;stroke:#ff8080;stroke-linejoin:miter;"/>
    </g>
    <!-- Separated phase -->
    <defs>
     <path d="M 41.109375 46.296875 
Q 39.59375 47.171875 37.8125 47.578125 
Q 36.03125 48 33.890625 48 
Q 26.265625 48 22.1875 43.046875 
Q 18.109375 38.09375 18.109375 28.8125 
L 18.109375 0 
L 9.078125 0 
L 9.078125 54.6875 
L 18.109375 54.6875 
L 18.109375 46.1875 
Q 20.953125 51.171875 25.484375 53.578125 
Q 30.03125 56 36.53125 56 
Q 37.453125 56 38.578125 55.875 
Q 39.703125 55.765625 41.0625 55.515625 
z
" id="BitstreamVeraSans-Roman-72"/>
    </defs>
    <g transform="translate(427.213636364 177.455172414)scale(0.1 -0.1)">
     <use xlink:href="#BitstreamVeraSans-Roman-53"/>
     <use x="63.4765625" xlink:href="#BitstreamVeraSans-Roman-65"/>
     <use x="125.0" xlink:href="#BitstreamVeraSans-Roman-70"/>
     <use x="188.4765625" xlink:href="#BitstreamVeraSans-Roman-61"/>
     <use x="249.755859375" xlink:href="#BitstreamVeraSans-Roman-72"/>
     <use x="290.869140625" xlink:href="#BitstreamVeraSans-Roman-61"/>
     <use x="352.1484375" xlink:href="#BitstreamVeraSans-Roman-74"/>
     <use x="391.357421875" xlink:href="#BitstreamVeraSans-Roman-65"/>
     <use x="452.880859375" xlink:href="#BitstreamVeraSans-Roman-64"/>
     <use x="516.357421875" xlink:href="#BitstreamVeraSans-Roman-20"/>
     <use x="548.14453125" xlink:href="#BitstreamVeraSans-Roman-70"/>
     <use x="611.62109375" xlink:href="#BitstreamVeraSans-Roman-68"/>
     <use x="675.0" xlink:href="#BitstreamVeraSans-Roman-61"/>
     <use x="736.279296875" xlink:href="#BitstreamVeraSans-Roman-73"/>
     <use x="788.37890625" xlink:href="#BitstreamVeraSans-Roman-65"/>
    </g>
   </g>
  </g>
 </g>
 <defs>
  <clipPath id="p7bc8c82bef">
   <rect height="167.4" width="228.272727273" x="81.0" y="21.6"/>
  </clipPath>
  <clipPath id="p89704c61c7">
   <rect height="167.4" width="228.272727273" x="354.927272727" y="21.6"/>
  </clipPath>
 </defs>
</svg>
